<mxfile host="app.diagrams.net" modified="2023-12-16T04:28:16.182Z" agent="Mozilla/5.0 (Windows NT 10.0; Win64; x64) AppleWebKit/537.36 (KHTML, like Gecko) Chrome/120.0.0.0 Safari/537.36" etag="yzkTDJTNL_G4wfpZHsOi" version="22.1.11" type="device">
  <diagram name="lab3" id="zmYUBch33MjO8KJRVJ-L">
    <mxGraphModel dx="2781" dy="925" grid="1" gridSize="10" guides="1" tooltips="1" connect="1" arrows="1" fold="1" page="1" pageScale="1" pageWidth="1169" pageHeight="827" math="0" shadow="0">
      <root>
        <mxCell id="0" />
        <mxCell id="1" parent="0" />
        <mxCell id="IRS_e94r_K209oMZpBcW-1" value="&lt;span style=&quot;font-size: 16px;&quot;&gt;Поиск теста&lt;/span&gt;" style="rounded=0;whiteSpace=wrap;html=1;fillColor=#f8cecc;strokeColor=#b85450;" parent="1" vertex="1">
          <mxGeometry x="160" y="100" width="200" height="60" as="geometry" />
        </mxCell>
        <mxCell id="IRS_e94r_K209oMZpBcW-4" value="&lt;font style=&quot;font-size: 16px;&quot;&gt;Создание теста&lt;/font&gt;" style="rounded=0;whiteSpace=wrap;html=1;fillColor=#f8cecc;strokeColor=#b85450;" parent="1" vertex="1">
          <mxGeometry x="400" y="100" width="200" height="60" as="geometry" />
        </mxCell>
        <mxCell id="IRS_e94r_K209oMZpBcW-5" value="&lt;font style=&quot;font-size: 16px;&quot;&gt;Использование калькулятора&lt;/font&gt;" style="rounded=0;whiteSpace=wrap;html=1;fillColor=#f8cecc;strokeColor=#b85450;" parent="1" vertex="1">
          <mxGeometry x="640" y="100" width="200" height="60" as="geometry" />
        </mxCell>
        <mxCell id="IRS_e94r_K209oMZpBcW-6" value="&lt;font style=&quot;font-size: 16px;&quot;&gt;Изменение языка&lt;/font&gt;" style="rounded=0;whiteSpace=wrap;html=1;fillColor=#f8cecc;strokeColor=#b85450;" parent="1" vertex="1">
          <mxGeometry x="880" y="100" width="200" height="60" as="geometry" />
        </mxCell>
        <mxCell id="IRS_e94r_K209oMZpBcW-7" value="" style="endArrow=none;html=1;rounded=0;strokeWidth=3;" parent="1" edge="1">
          <mxGeometry width="50" height="50" relative="1" as="geometry">
            <mxPoint x="120" y="200" as="sourcePoint" />
            <mxPoint x="1120" y="200" as="targetPoint" />
          </mxGeometry>
        </mxCell>
        <mxCell id="IRS_e94r_K209oMZpBcW-8" value="" style="endArrow=none;html=1;rounded=0;strokeWidth=3;" parent="1" edge="1">
          <mxGeometry width="50" height="50" relative="1" as="geometry">
            <mxPoint x="380" y="80" as="sourcePoint" />
            <mxPoint x="380" y="760" as="targetPoint" />
          </mxGeometry>
        </mxCell>
        <mxCell id="IRS_e94r_K209oMZpBcW-9" value="" style="endArrow=none;html=1;rounded=0;strokeWidth=3;" parent="1" edge="1">
          <mxGeometry width="50" height="50" relative="1" as="geometry">
            <mxPoint x="620" y="80" as="sourcePoint" />
            <mxPoint x="620" y="760" as="targetPoint" />
          </mxGeometry>
        </mxCell>
        <mxCell id="IRS_e94r_K209oMZpBcW-10" value="" style="endArrow=none;html=1;rounded=0;strokeWidth=3;" parent="1" edge="1">
          <mxGeometry width="50" height="50" relative="1" as="geometry">
            <mxPoint x="860" y="80" as="sourcePoint" />
            <mxPoint x="860" y="760" as="targetPoint" />
          </mxGeometry>
        </mxCell>
        <mxCell id="IRS_e94r_K209oMZpBcW-11" value="" style="endArrow=none;dashed=1;html=1;rounded=0;strokeWidth=3;" parent="1" edge="1">
          <mxGeometry width="50" height="50" relative="1" as="geometry">
            <mxPoint x="120" y="320" as="sourcePoint" />
            <mxPoint x="1120" y="320" as="targetPoint" />
          </mxGeometry>
        </mxCell>
        <mxCell id="IRS_e94r_K209oMZpBcW-12" value="" style="endArrow=none;dashed=1;html=1;rounded=0;strokeWidth=3;" parent="1" edge="1">
          <mxGeometry width="50" height="50" relative="1" as="geometry">
            <mxPoint x="120" y="560" as="sourcePoint" />
            <mxPoint x="1120" y="560" as="targetPoint" />
          </mxGeometry>
        </mxCell>
        <mxCell id="IRS_e94r_K209oMZpBcW-13" value="" style="endArrow=none;html=1;rounded=0;strokeWidth=3;" parent="1" edge="1">
          <mxGeometry width="50" height="50" relative="1" as="geometry">
            <mxPoint x="100" y="560" as="sourcePoint" />
            <mxPoint x="100" y="320" as="targetPoint" />
          </mxGeometry>
        </mxCell>
        <mxCell id="IRS_e94r_K209oMZpBcW-14" value="" style="endArrow=none;html=1;rounded=0;strokeWidth=3;" parent="1" edge="1">
          <mxGeometry width="50" height="50" relative="1" as="geometry">
            <mxPoint x="100" y="760" as="sourcePoint" />
            <mxPoint x="100" y="570" as="targetPoint" />
          </mxGeometry>
        </mxCell>
        <mxCell id="IRS_e94r_K209oMZpBcW-15" value="&lt;font style=&quot;font-size: 16px;&quot;&gt;Использовать ячейку &quot;Поиск&quot;&lt;/font&gt;" style="rounded=0;whiteSpace=wrap;html=1;fillColor=#d5e8d4;strokeColor=#82b366;" parent="1" vertex="1">
          <mxGeometry x="170" y="220" width="140" height="70" as="geometry" />
        </mxCell>
        <mxCell id="IRS_e94r_K209oMZpBcW-16" value="&lt;span style=&quot;font-size: 14px;&quot;&gt;Добавить теорию&lt;/span&gt;" style="rounded=0;whiteSpace=wrap;html=1;fillColor=#d5e8d4;strokeColor=#82b366;" parent="1" vertex="1">
          <mxGeometry x="420" y="220" width="160" height="30" as="geometry" />
        </mxCell>
        <mxCell id="IRS_e94r_K209oMZpBcW-19" value="&lt;font style=&quot;font-size: 16px;&quot;&gt;Использовать калькулятор&lt;/font&gt;" style="rounded=0;whiteSpace=wrap;html=1;fillColor=#d5e8d4;strokeColor=#82b366;" parent="1" vertex="1">
          <mxGeometry x="660" y="225" width="160" height="55" as="geometry" />
        </mxCell>
        <mxCell id="IRS_e94r_K209oMZpBcW-20" value="&lt;font style=&quot;font-size: 18px;&quot;&gt;Изменить язык&lt;/font&gt;" style="rounded=0;whiteSpace=wrap;html=1;fillColor=#d5e8d4;strokeColor=#82b366;" parent="1" vertex="1">
          <mxGeometry x="910" y="232.5" width="160" height="40" as="geometry" />
        </mxCell>
        <mxCell id="IRS_e94r_K209oMZpBcW-21" value="&lt;font style=&quot;font-size: 14px;&quot;&gt;Добавить практику&lt;/font&gt;" style="rounded=0;whiteSpace=wrap;html=1;fillColor=#d5e8d4;strokeColor=#82b366;" parent="1" vertex="1">
          <mxGeometry x="420" y="260" width="160" height="30" as="geometry" />
        </mxCell>
        <mxCell id="IRS_e94r_K209oMZpBcW-23" value="&lt;font style=&quot;font-size: 16px;&quot;&gt;Релиз 1&lt;/font&gt;" style="text;html=1;align=center;verticalAlign=middle;resizable=0;points=[];autosize=1;strokeColor=none;fillColor=none;" parent="1" vertex="1">
          <mxGeometry x="-5" y="440" width="80" height="30" as="geometry" />
        </mxCell>
        <mxCell id="IRS_e94r_K209oMZpBcW-24" value="&lt;font style=&quot;font-size: 16px;&quot;&gt;Релиз 2&lt;/font&gt;" style="text;html=1;align=center;verticalAlign=middle;resizable=0;points=[];autosize=1;strokeColor=none;fillColor=none;" parent="1" vertex="1">
          <mxGeometry x="-5" y="655" width="80" height="30" as="geometry" />
        </mxCell>
        <mxCell id="IRS_e94r_K209oMZpBcW-25" value="&lt;font style=&quot;font-size: 20px;&quot;&gt;Фильтровать по темам&lt;/font&gt;" style="rounded=0;whiteSpace=wrap;html=1;fillColor=#fff2cc;strokeColor=#d6b656;" parent="1" vertex="1">
          <mxGeometry x="170" y="370" width="140" height="70" as="geometry" />
        </mxCell>
        <mxCell id="IRS_e94r_K209oMZpBcW-26" value="&lt;font style=&quot;font-size: 20px;&quot;&gt;Фильтровать&lt;br&gt;по объёму&lt;/font&gt;" style="rounded=0;whiteSpace=wrap;html=1;fillColor=#fff2cc;strokeColor=#d6b656;" parent="1" vertex="1">
          <mxGeometry x="170" y="600" width="140" height="80" as="geometry" />
        </mxCell>
        <mxCell id="IRS_e94r_K209oMZpBcW-27" value="&lt;span style=&quot;font-size: 16px;&quot;&gt;Добавить текстовую информацию&lt;/span&gt;" style="rounded=0;whiteSpace=wrap;html=1;fillColor=#fff2cc;strokeColor=#d6b656;" parent="1" vertex="1">
          <mxGeometry x="420" y="340" width="160" height="60" as="geometry" />
        </mxCell>
        <mxCell id="IRS_e94r_K209oMZpBcW-28" value="&lt;span style=&quot;font-size: 16px;&quot;&gt;Добавить фото&lt;/span&gt;" style="rounded=0;whiteSpace=wrap;html=1;fillColor=#fff2cc;strokeColor=#d6b656;" parent="1" vertex="1">
          <mxGeometry x="420" y="413.5" width="160" height="50" as="geometry" />
        </mxCell>
        <mxCell id="IRS_e94r_K209oMZpBcW-29" value="&lt;span style=&quot;font-size: 16px;&quot;&gt;Перейти через кнопку &quot;Добавить&quot; в окно &quot;Практика&quot;&lt;/span&gt;" style="rounded=0;whiteSpace=wrap;html=1;fillColor=#fff2cc;strokeColor=#d6b656;" parent="1" vertex="1">
          <mxGeometry x="420" y="480" width="160" height="60" as="geometry" />
        </mxCell>
        <mxCell id="IRS_e94r_K209oMZpBcW-31" value="&lt;font style=&quot;font-size: 19px;&quot;&gt;Добавить вопрос&lt;/font&gt;" style="rounded=0;whiteSpace=wrap;html=1;fillColor=#fff2cc;strokeColor=#d6b656;" parent="1" vertex="1">
          <mxGeometry x="415" y="600" width="170" height="90" as="geometry" />
        </mxCell>
        <mxCell id="IRS_e94r_K209oMZpBcW-37" value="&lt;font style=&quot;font-size: 18px;&quot;&gt;Выбрать необходимый калькулятор&lt;/font&gt;" style="rounded=0;whiteSpace=wrap;html=1;fillColor=#fff2cc;strokeColor=#d6b656;" parent="1" vertex="1">
          <mxGeometry x="670" y="340" width="140" height="75" as="geometry" />
        </mxCell>
        <mxCell id="IRS_e94r_K209oMZpBcW-38" value="&lt;font style=&quot;font-size: 18px;&quot;&gt;Использовать калькулятор для решения теста&lt;/font&gt;" style="rounded=0;whiteSpace=wrap;html=1;fillColor=#fff2cc;strokeColor=#d6b656;" parent="1" vertex="1">
          <mxGeometry x="670" y="440" width="140" height="100" as="geometry" />
        </mxCell>
        <mxCell id="IRS_e94r_K209oMZpBcW-40" value="&lt;font style=&quot;font-size: 18px;&quot;&gt;Нажать на кнопку Англ.&lt;/font&gt;" style="rounded=0;whiteSpace=wrap;html=1;fillColor=#fff2cc;strokeColor=#d6b656;" parent="1" vertex="1">
          <mxGeometry x="910" y="357.5" width="160" height="72.5" as="geometry" />
        </mxCell>
        <mxCell id="IRS_e94r_K209oMZpBcW-41" value="&lt;font style=&quot;font-size: 18px;&quot;&gt;Нажать на кнопку Рус.&lt;/font&gt;" style="rounded=0;whiteSpace=wrap;html=1;fillColor=#fff2cc;strokeColor=#d6b656;" parent="1" vertex="1">
          <mxGeometry x="910" y="448.25" width="160" height="61.75" as="geometry" />
        </mxCell>
      </root>
    </mxGraphModel>
  </diagram>
</mxfile>
